<svg id="Group_1" data-name="Group 1" xmlns="http://www.w3.org/2000/svg" width="817.35" height="455" viewBox="0 0 817.35 455">
  <path id="Path_1" data-name="Path 1" d="M66.818,37.313,63.3,36.994c-2.718-.159-3.677-1.276-3.677-3.189,0-2.232,1.6-3.508,4.8-3.508a8.259,8.259,0,0,1,5.755,1.754l2.078-2.073a12.048,12.048,0,0,0-7.673-2.232c-4.636,0-7.833,2.392-7.833,6.219,0,3.508,2.238,5.422,6.394,5.74l3.517.319c2.558.159,3.517,1.276,3.517,3.189,0,2.551-2.238,3.827-5.755,3.827a8.684,8.684,0,0,1-6.714-2.551l-2.078,2.073a11.9,11.9,0,0,0,8.792,3.03c5.115,0,8.792-2.392,8.792-6.538S70.654,37.632,66.818,37.313Zm26.855-9.727c-3.517,0-5.595.638-7.513,3.03l2.078,2.073A5.711,5.711,0,0,1,93.673,30.3c4,0,5.435,1.595,5.435,4.624v2.073H92.714c-4.8,0-7.353,2.392-7.353,6.219a6.011,6.011,0,0,0,1.6,4.305c1.279,1.435,3.037,1.913,6.074,1.913A8.179,8.179,0,0,0,99.268,47.2v2.073h3.2V34.762C102.305,30.138,99.427,27.586,93.673,27.586Zm5.435,14.192a4.431,4.431,0,0,1-1.119,3.668,6.4,6.4,0,0,1-4.8,1.435c-3.357,0-4.955-1.116-4.955-3.667s1.6-3.827,4.8-3.827h6.074Zm15.505-11.322a5.993,5.993,0,0,1,4.956,2.392l2.078-2.073a8.64,8.64,0,0,0-7.034-3.189c-5.435,0-9.431,3.668-9.431,11s4.156,11,9.431,11a8.64,8.64,0,0,0,7.034-3.189l-2.078-2.073a5.993,5.993,0,0,1-4.956,2.392,5.6,5.6,0,0,1-4.955-2.392,9.1,9.1,0,0,1-1.439-5.741,9.1,9.1,0,0,1,1.439-5.741A5.6,5.6,0,0,1,114.613,30.457Zm26.855-2.551h-3.836l-9.751,9.408V18.338h-3.2V49.273h3.2V41.459l3.836-3.827,7.194,11.64h3.836L133.8,35.559Zm14.707-1.116A8.608,8.608,0,0,0,149.3,29.5c-2.078,2.073-2.558,4.624-2.558,8.611s.48,6.538,2.558,8.611a9.814,9.814,0,0,0,6.874,2.711,8.607,8.607,0,0,0,6.873-2.711c2.078-2.073,2.558-4.624,2.558-8.611s-.48-6.538-2.558-8.611A8.607,8.607,0,0,0,156.175,26.789Zm2.717,16.743a3.9,3.9,0,0,1-5.115,0c-1.119-1.116-1.279-3.189-1.279-5.422s.16-4.306,1.279-5.422a3.9,3.9,0,0,1,5.115,0c1.119,1.116,1.279,3.03,1.279,5.422S160.011,42.416,158.892,43.532Zm21.74-16.584-4.476,13.714L171.68,26.949h-5.914l8.312,22.324h4.316l8.152-22.324Zm15.346-.16c-5.755,0-9.751,4.146-9.751,11.322,0,9.089,5.115,11.481,10.39,11.481a10.584,10.584,0,0,0,8.472-3.508l-3.357-3.349a6.231,6.231,0,0,1-5.115,2.073,4.647,4.647,0,0,1-4.955-4.305v-.638h13.907V37.313C205.729,31.254,202.212,26.789,195.978,26.789Zm-4.316,9.249a6.4,6.4,0,0,1,.479-2.392,3.9,3.9,0,0,1,3.677-2.232,3.662,3.662,0,0,1,3.676,2.232,6.38,6.38,0,0,1,.48,2.392Zm22.219-6.857V27.108h-5.435V49.432h5.6V36.038a3.87,3.87,0,0,1,3.357-4.146h.319a3.75,3.75,0,0,1,2.878,1.276l4.156-4.146a6.555,6.555,0,0,0-5.275-2.073A6.832,6.832,0,0,0,213.881,29.181Zm12.628-4.465V49.273h5.6V31.732h4.156V27.427H232.1V25.035a1.8,1.8,0,0,1,1.439-2.073H236.1V18.178h-3.2a6.136,6.136,0,0,0-6.394,6.059Zm32.61,2.073a8.609,8.609,0,0,0-6.874,2.711c-2.078,2.073-2.557,4.624-2.557,8.611s.479,6.538,2.557,8.611a9.815,9.815,0,0,0,6.874,2.711,8.609,8.609,0,0,0,6.874-2.711c2.078-2.073,2.557-4.624,2.557-8.611s-.479-6.538-2.557-8.611A8.609,8.609,0,0,0,259.119,26.789Zm2.717,16.743a3.9,3.9,0,0,1-5.115,0c-1.119-1.116-1.279-3.189-1.279-5.422s.16-4.306,1.279-5.422a3.9,3.9,0,0,1,5.115,0c1.119,1.116,1.279,3.03,1.279,5.422S262.955,42.416,261.836,43.532Zm33.09-16.584-3.677,13.714-4.636-13.714h-4l-4.476,13.873-3.676-13.714H268.55l6.874,22.324h4.635L284.7,35.4l4.636,14.033h4.8L301,27.108ZM244.413,42.576V18.338h-5.6V42.895a6.072,6.072,0,0,0,5.754,6.378h4V44.489h-2.078a1.782,1.782,0,0,1-2.078-1.276ZM84.721,28.384H78.807V21.368h-3.2V43.532c0,3.189,1.758,5.741,5.435,5.741h2.238V46.562h-1.6c-2.078,0-2.877-1.116-2.877-3.189V31.094h3.037Z" fill="#fff"/>
  <path id="Path_2" data-name="Path 2" d="M41.561,52.622V38.27h6.394V59H0V38.27H6.394V52.622" fill="#bcbbbb"/>
  <path id="Path_3" data-name="Path 3" d="M36.926,41.459l1.119-4.784L12.309,31.413,11.19,36.676ZM14.547,24.238,38.524,35.4l2.238-4.784L16.784,19.454Zm6.714-11.8,20.3,16.9,3.357-3.986-20.3-16.9ZM34.368,0,30.052,3.189,45.877,24.4l4.316-3.189ZM11.19,47.838H36.766V43.054H11.19Z" fill="#f48024"/>
  <path id="Path_4" data-name="Path 4" d="M32.047,238.059H18.4V275H15.039V238.059H1.422v-2.871H32.047ZM67.5,275H64.113V255.914H41.363V275H38V235.188h3.363V253.07h22.75V235.188H67.5Zm31.629-19.086H80.512v16.242h21.41V275H77.148V235.188h24.637v2.871H80.512V253.07H99.133Z" fill="#fff"/>
  <path id="Path_5" data-name="Path 5" d="M546.811,200.031l13.634,32.627,13.686-32.627h4.164V237h-3.123V220.9l.254-16.5L561.664,237h-2.412l-13.711-32.475.254,16.276V237h-3.123V200.031Zm37.966,22.826a16.273,16.273,0,0,1,1.524-7.134,11.595,11.595,0,0,1,10.715-6.7,11.282,11.282,0,0,1,8.886,3.859q3.4,3.834,3.4,10.182v.634a16.286,16.286,0,0,1-1.549,7.186,11.4,11.4,0,0,1-4.317,4.9,11.87,11.87,0,0,1-6.373,1.727,11.366,11.366,0,0,1-8.886-3.834q-3.4-3.859-3.4-10.207Zm3.047.838a12.565,12.565,0,0,0,2.539,8.1,8.232,8.232,0,0,0,6.7,3.148,8.135,8.135,0,0,0,6.653-3.148,12.889,12.889,0,0,0,2.564-8.354v-.584a13.965,13.965,0,0,0-1.168-5.763,9.29,9.29,0,0,0-3.275-4.037,8.316,8.316,0,0,0-4.824-1.448,8.105,8.105,0,0,0-6.627,3.2,12.841,12.841,0,0,0-2.565,8.328Zm43.731,6.323a4.321,4.321,0,0,0-1.828-3.631,13.767,13.767,0,0,0-5.459-2.133,25.86,25.86,0,0,1-5.688-1.777,7.785,7.785,0,0,1-3-2.463,6.175,6.175,0,0,1-.965-3.5,6.5,6.5,0,0,1,2.717-5.358,10.927,10.927,0,0,1,6.957-2.132,11.2,11.2,0,0,1,7.363,2.285,7.244,7.244,0,0,1,2.793,5.916H631.4a4.91,4.91,0,0,0-2.031-4.012,9.074,9.074,0,0,0-9.9-.254,4.089,4.089,0,0,0-1.8,3.453,3.791,3.791,0,0,0,1.5,3.2,16.339,16.339,0,0,0,5.51,2.057,25.593,25.593,0,0,1,5.992,2.006,7.757,7.757,0,0,1,2.971,2.564,7.039,7.039,0,0,1-1.854,9.192,11.928,11.928,0,0,1-7.312,2.082,12.4,12.4,0,0,1-7.795-2.311,7.194,7.194,0,0,1-2.971-5.89h3.047a5.332,5.332,0,0,0,2.234,4.164,9.309,9.309,0,0,0,5.485,1.472,8.635,8.635,0,0,0,5.129-1.4A4.193,4.193,0,0,0,631.555,230.018Zm14.125-27.524v7.033h5.687v2.489H645.68v18.306a5.8,5.8,0,0,0,.812,3.4,3.239,3.239,0,0,0,2.768,1.117,18.952,18.952,0,0,0,2.463-.254l.127,2.488a9.841,9.841,0,0,1-3.25.432,5.437,5.437,0,0,1-4.545-1.8,8.6,8.6,0,0,1-1.422-5.357V212.016H637.58v-2.489h5.053v-7.033Zm32.185,30.317,8.354-23.284h3.123L679.084,237h-2.463l-10.309-27.473h3.124ZM697.246,237H694.2V209.527h3.047Zm-3.58-35.42a2.01,2.01,0,0,1,.559-1.447,2.1,2.1,0,1,1,3.046,2.894,2.082,2.082,0,0,1-3.6-1.447Zm22,35.928a11.993,11.993,0,0,1-6.348-1.727,11.81,11.81,0,0,1-4.392-4.8,15.069,15.069,0,0,1-1.574-6.931v-1.092a16.275,16.275,0,0,1,1.523-7.135,12.217,12.217,0,0,1,4.291-4.976,10.5,10.5,0,0,1,5.942-1.828,9.864,9.864,0,0,1,7.921,3.427q2.946,3.4,2.946,9.319v1.7h-19.6v.584a11.589,11.589,0,0,0,2.666,7.795,8.573,8.573,0,0,0,6.754,3.1,9.824,9.824,0,0,0,4.291-.888,9.509,9.509,0,0,0,3.4-2.844l1.905,1.447A11.087,11.087,0,0,1,715.662,237.508Zm-.558-25.9a7.637,7.637,0,0,0-5.79,2.514,11.656,11.656,0,0,0-2.843,6.754h16.478v-.33a10.077,10.077,0,0,0-2.26-6.449A7,7,0,0,0,715.1,211.609Zm22.859,19.069.457,2.361.609-2.488,6.6-21.024h2.59l6.525,20.846.711,2.9.584-2.666,5.637-21.075h3.148l-8,27.473h-2.59l-7.058-21.785-.33-1.5-.33,1.523L739.588,237H737l-7.973-27.473h3.123Zm42.766,6.83a11.994,11.994,0,0,1-6.348-1.727,11.813,11.813,0,0,1-4.393-4.8,15.082,15.082,0,0,1-1.574-6.931v-1.092a16.275,16.275,0,0,1,1.524-7.135,12.2,12.2,0,0,1,4.291-4.976,10.5,10.5,0,0,1,5.941-1.828,9.865,9.865,0,0,1,7.922,3.427q2.945,3.4,2.945,9.319v1.7h-19.6v.584a11.584,11.584,0,0,0,2.666,7.795,8.571,8.571,0,0,0,6.753,3.1,9.82,9.82,0,0,0,4.291-.888,9.52,9.52,0,0,0,3.4-2.844l1.9,1.447A11.085,11.085,0,0,1,780.729,237.508Zm-.559-25.9a7.635,7.635,0,0,0-5.789,2.514,11.663,11.663,0,0,0-2.844,6.754h16.479v-.33a10.082,10.082,0,0,0-2.26-6.449A7,7,0,0,0,780.17,211.609Zm15.064,11.4q0-6.4,2.844-10.182a9.217,9.217,0,0,1,7.77-3.808,9.552,9.552,0,0,1,8.48,4.392V198h3.022v39h-2.844l-.127-3.656a9.812,9.812,0,0,1-8.582,4.164,9.206,9.206,0,0,1-7.668-3.809q-2.9-3.834-2.9-10.334Zm3.073.533q0,5.256,2.107,8.3a6.824,6.824,0,0,0,5.941,3.021,8.178,8.178,0,0,0,7.973-4.951v-12.9q-2.361-5.358-7.922-5.358a6.888,6.888,0,0,0-5.967,3.022Q798.307,217.677,798.307,223.543ZM540.742,279.01q0-6.45,2.844-10.207a9.288,9.288,0,0,1,7.82-3.783,9.59,9.59,0,0,1,8.455,4.24l.153-3.733h2.843v38.035h-3.046V289.6a10.036,10.036,0,0,1-8.456,3.91,9.208,9.208,0,0,1-7.718-3.809q-2.9-3.809-2.9-10.283Zm3.072.533q0,5.332,2.133,8.379a6.93,6.93,0,0,0,5.967,3.021,8.248,8.248,0,0,0,7.9-4.748V272.738a8.786,8.786,0,0,0-3.174-3.783,8.191,8.191,0,0,0-4.672-1.346,6.935,6.935,0,0,0-5.992,3.047Q543.814,273.678,543.814,279.543Zm44.315,9.978q-2.742,3.987-8.76,3.987-4.392,0-6.678-2.539-2.284-2.565-2.336-7.567V265.527h3.022v17.494q0,7.847,6.348,7.846,6.6,0,8.353-5.459V265.527h3.047V293H588.18Zm21.057,3.987a11.993,11.993,0,0,1-6.348-1.727,11.812,11.812,0,0,1-4.393-4.8,15.082,15.082,0,0,1-1.574-6.931v-1.092a16.275,16.275,0,0,1,1.524-7.135,12.2,12.2,0,0,1,4.291-4.976,10.5,10.5,0,0,1,5.941-1.828,9.866,9.866,0,0,1,7.922,3.427q2.945,3.4,2.945,9.319v1.7h-19.6v.584a11.584,11.584,0,0,0,2.666,7.8,8.571,8.571,0,0,0,6.753,3.1,9.825,9.825,0,0,0,4.292-.888,9.526,9.526,0,0,0,3.4-2.844l1.9,1.447A11.085,11.085,0,0,1,609.186,293.508Zm-.559-25.9a7.635,7.635,0,0,0-5.789,2.514,11.663,11.663,0,0,0-2.844,6.754h16.479v-.33a10.083,10.083,0,0,0-2.26-6.449A7,7,0,0,0,608.627,267.609Zm32.736,18.409a4.318,4.318,0,0,0-1.828-3.631,13.761,13.761,0,0,0-5.459-2.133,25.865,25.865,0,0,1-5.687-1.777,7.777,7.777,0,0,1-3-2.463,6.167,6.167,0,0,1-.965-3.5,6.5,6.5,0,0,1,2.717-5.358,10.927,10.927,0,0,1,6.957-2.132,11.2,11.2,0,0,1,7.363,2.285,7.244,7.244,0,0,1,2.793,5.916h-3.047a4.91,4.91,0,0,0-2.031-4.012,9.076,9.076,0,0,0-9.9-.254,4.09,4.09,0,0,0-1.8,3.453,3.791,3.791,0,0,0,1.5,3.2,16.332,16.332,0,0,0,5.509,2.057,25.6,25.6,0,0,1,5.993,2.006,7.745,7.745,0,0,1,2.97,2.564,7.04,7.04,0,0,1-1.853,9.192,11.931,11.931,0,0,1-7.313,2.082,12.406,12.406,0,0,1-7.795-2.311,7.2,7.2,0,0,1-2.97-5.89h3.047a5.332,5.332,0,0,0,2.234,4.164,9.308,9.308,0,0,0,5.484,1.472,8.633,8.633,0,0,0,5.129-1.4A4.19,4.19,0,0,0,641.363,286.018Zm14.125-27.524v7.033h5.688v2.489h-5.688v18.306a5.793,5.793,0,0,0,.813,3.4,3.237,3.237,0,0,0,2.767,1.117,18.957,18.957,0,0,0,2.463-.254l.127,2.488a9.837,9.837,0,0,1-3.25.432,5.437,5.437,0,0,1-4.545-1.8,8.6,8.6,0,0,1-1.422-5.357V268.016h-5.052v-2.489h5.052v-7.033ZM670.375,293h-3.047V265.527h3.047Zm-3.58-35.42a2.01,2.01,0,0,1,.559-1.447,2.1,2.1,0,1,1,3.046,2.894,2.082,2.082,0,0,1-3.605-1.447Zm9.682,21.277A16.273,16.273,0,0,1,678,271.723a11.6,11.6,0,0,1,10.715-6.7,11.286,11.286,0,0,1,8.887,3.859q3.4,3.834,3.4,10.182v.634a16.273,16.273,0,0,1-1.549,7.186,11.4,11.4,0,0,1-4.316,4.9,11.873,11.873,0,0,1-6.373,1.727,11.366,11.366,0,0,1-8.887-3.834q-3.4-3.859-3.4-10.207Zm3.046.838a12.565,12.565,0,0,0,2.539,8.1,8.234,8.234,0,0,0,6.7,3.148,8.135,8.135,0,0,0,6.652-3.148,12.884,12.884,0,0,0,2.564-8.354v-.584a13.965,13.965,0,0,0-1.168-5.763,9.29,9.29,0,0,0-3.275-4.037,8.316,8.316,0,0,0-4.824-1.448,8.108,8.108,0,0,0-6.627,3.2,12.84,12.84,0,0,0-2.565,8.328ZM709.7,265.527l.1,4.7a10.8,10.8,0,0,1,3.859-3.86,9.96,9.96,0,0,1,5.1-1.345q4.418,0,6.576,2.488t2.184,7.465V293H724.5V274.947q-.025-3.681-1.574-5.484-1.524-1.8-4.9-1.8a7.7,7.7,0,0,0-5,1.778,10.294,10.294,0,0,0-3.2,4.748V293H706.8V265.527Zm41.649,20.491a4.321,4.321,0,0,0-1.828-3.631,13.767,13.767,0,0,0-5.459-2.133,25.859,25.859,0,0,1-5.688-1.777,7.785,7.785,0,0,1-3-2.463,6.175,6.175,0,0,1-.965-3.5,6.5,6.5,0,0,1,2.717-5.358,10.927,10.927,0,0,1,6.957-2.132,11.2,11.2,0,0,1,7.363,2.285,7.244,7.244,0,0,1,2.793,5.916h-3.047a4.91,4.91,0,0,0-2.031-4.012,9.074,9.074,0,0,0-9.9-.254,4.089,4.089,0,0,0-1.8,3.453,3.791,3.791,0,0,0,1.5,3.2,16.34,16.34,0,0,0,5.51,2.057,25.594,25.594,0,0,1,5.992,2.006,7.749,7.749,0,0,1,2.971,2.564,7.039,7.039,0,0,1-1.854,9.192,11.928,11.928,0,0,1-7.312,2.082,12.4,12.4,0,0,1-7.795-2.311,7.194,7.194,0,0,1-2.971-5.89h3.047a5.334,5.334,0,0,0,2.234,4.164,9.312,9.312,0,0,0,5.485,1.472,8.635,8.635,0,0,0,5.129-1.4A4.193,4.193,0,0,0,751.344,286.018Zm19.871-7.161a16.288,16.288,0,0,1,1.523-7.134,11.6,11.6,0,0,1,10.715-6.7,11.284,11.284,0,0,1,8.887,3.859q3.4,3.834,3.4,10.182v.634a16.272,16.272,0,0,1-1.549,7.186,11.4,11.4,0,0,1-4.316,4.9,11.87,11.87,0,0,1-6.373,1.727,11.368,11.368,0,0,1-8.887-3.834q-3.4-3.859-3.4-10.207Zm3.047.838a12.559,12.559,0,0,0,2.539,8.1,8.231,8.231,0,0,0,6.7,3.148,8.134,8.134,0,0,0,6.652-3.148,12.884,12.884,0,0,0,2.565-8.354v-.584a13.98,13.98,0,0,0-1.168-5.763,9.3,9.3,0,0,0-3.276-4.037,8.316,8.316,0,0,0-4.824-1.448,8.108,8.108,0,0,0-6.627,3.2,12.846,12.846,0,0,0-2.564,8.328ZM803.723,293V268.016h-4.545v-2.489h4.545V262.2a9.078,9.078,0,0,1,2.132-6.474,7.893,7.893,0,0,1,5.993-2.26,11.622,11.622,0,0,1,3.224.431l-.228,2.54a11.809,11.809,0,0,0-2.768-.3,4.955,4.955,0,0,0-3.91,1.574,6.376,6.376,0,0,0-1.4,4.418v3.4h6.55v2.489h-6.55V293ZM559.3,349a14.326,14.326,0,0,1-.584-3.834,10.691,10.691,0,0,1-4.088,3.225,12.529,12.529,0,0,1-5.231,1.117,9.257,9.257,0,0,1-6.423-2.209,7.214,7.214,0,0,1-2.438-5.586,7.362,7.362,0,0,1,3.326-6.348q3.352-2.335,9.319-2.336h5.509v-3.123a5.955,5.955,0,0,0-1.828-4.621,7.42,7.42,0,0,0-5.281-1.7,8.287,8.287,0,0,0-5.256,1.625,4.828,4.828,0,0,0-2.082,3.91l-3.047-.025a7.032,7.032,0,0,1,3.047-5.662,11.691,11.691,0,0,1,7.49-2.412,10.618,10.618,0,0,1,7.237,2.31,8.189,8.189,0,0,1,2.742,6.4v13a16.112,16.112,0,0,0,.838,5.966v.3Zm-9.547-2.184a10.131,10.131,0,0,0,5.433-1.472,8.643,8.643,0,0,0,3.5-3.936v-6.043H553.26a13.535,13.535,0,0,0-7.11,1.676,5.124,5.124,0,0,0-.863,8.252A6.5,6.5,0,0,0,549.756,346.816ZM572.742,349H569.7V310h3.047Zm11.18,0h-3.047V310h3.047Zm24.644-34.506v7.033h5.688v2.489h-5.688v18.306a5.793,5.793,0,0,0,.813,3.4,3.238,3.238,0,0,0,2.767,1.117,18.957,18.957,0,0,0,2.463-.254l.127,2.488a9.837,9.837,0,0,1-3.25.432,5.437,5.437,0,0,1-4.545-1.8,8.6,8.6,0,0,1-1.421-5.357V324.016h-5.053v-2.489h5.053v-7.033ZM623.453,349h-3.047V321.527h3.047Zm-3.58-35.42a2.01,2.01,0,0,1,.559-1.447,2.1,2.1,0,1,1,3.047,2.894,2.083,2.083,0,0,1-3.606-1.447ZM634,321.527l.1,4.469a10.161,10.161,0,0,1,3.808-3.732,10.439,10.439,0,0,1,5.078-1.244q6.5,0,8.252,5.332a10.223,10.223,0,0,1,3.936-3.936,10.823,10.823,0,0,1,5.433-1.4q8.836,0,9.014,9.648V349h-3.047V330.9q-.025-3.681-1.6-5.458-1.549-1.777-5.079-1.778a8.065,8.065,0,0,0-5.535,2.133,7.446,7.446,0,0,0-2.513,5.027V349H648.8V330.668a7.441,7.441,0,0,0-1.676-5.256q-1.625-1.752-5.027-1.752a7.622,7.622,0,0,0-4.926,1.651,9.523,9.523,0,0,0-3.047,4.849V349h-3.047V321.527Zm53.481,27.981a11.994,11.994,0,0,1-6.348-1.727,11.813,11.813,0,0,1-4.393-4.8,15.082,15.082,0,0,1-1.574-6.931v-1.092a16.275,16.275,0,0,1,1.524-7.135,12.2,12.2,0,0,1,4.291-4.976,10.5,10.5,0,0,1,5.941-1.828,9.865,9.865,0,0,1,7.922,3.427q2.945,3.4,2.945,9.319v1.7h-19.6v.584a11.584,11.584,0,0,0,2.666,7.8,8.571,8.571,0,0,0,6.753,3.1,9.82,9.82,0,0,0,4.291-.888,9.52,9.52,0,0,0,3.4-2.844l1.9,1.447A11.085,11.085,0,0,1,687.479,349.508Zm-.559-25.9a7.635,7.635,0,0,0-5.789,2.514,11.663,11.663,0,0,0-2.844,6.754h16.479v-.33a10.082,10.082,0,0,0-2.26-6.449A7,7,0,0,0,686.92,323.609Zm16,23.563a2.135,2.135,0,0,1,.558-1.5,2.184,2.184,0,0,1,3.784,1.5,2,2,0,0,1-.584,1.473,2.573,2.573,0,0,1-3.2,0A2.049,2.049,0,0,1,702.924,347.172Z" fill="#fff"/>
  <path id="Path_6" data-name="Path 6" d="M216.1,453h-82.52V190.3L52.527,213.986v-62.5L208.533,97.531H216.1Z" fill="#fff"/>
  <path id="Path_7" data-name="Path 7" d="M380.492,426C324.727,426,279,385.339,279,335.256V216.248C279,166.661,324.727,126,380.492,126s101.491,40.661,101.491,90.248V335.256C482.541,385.339,436.814,426,380.492,426Z" fill="none" stroke="#f48024" stroke-miterlimit="10" stroke-width="58" stroke-dasharray="8 8"/>
  <circle id="Ellipse_1" data-name="Ellipse 1" cx="29" cy="29" r="29" transform="translate(539 394)" fill="none" stroke="#fff" stroke-width="2"/>
  <rect id="Rectangle_1" data-name="Rectangle 1" width="2" height="25" transform="translate(566.75 409)" fill="#e4853d"/>
  <rect id="Rectangle_2" data-name="Rectangle 2" width="2" height="8" transform="translate(571.901 429.003) rotate(45)" fill="#e4853d"/>
  <rect id="Rectangle_3" data-name="Rectangle 3" width="2" height="8" transform="translate(569.068 434.657) rotate(135)" fill="#e4853d"/>
</svg>
